<?xml version="1.0" encoding="utf-8"?>
<!-- Generator: Adobe Illustrator 16.0.3, SVG Export Plug-In . SVG Version: 6.00 Build 0)  -->
<svg version="1.2" baseProfile="tiny" id="Шар_1"
	 xmlns="http://www.w3.org/2000/svg" xmlns:xlink="http://www.w3.org/1999/xlink" x="0px" y="0px" width="24px" height="24px"
	 viewBox="0 0 24 24" xml:space="preserve">
<g>
	<g>
		<g>
			<path fill="#FFFFFF" d="M24,14.593v8.874h-5.145v-8.279c0-2.078-0.742-3.498-2.605-3.498c-1.422,0-2.268,0.955-2.639,1.88
				c-0.137,0.33-0.172,0.791-0.172,1.255v8.643H8.295c0,0,0.068-14.023,0-15.475h5.145v2.193c-0.01,0.017-0.022,0.033-0.032,0.051
				h0.032v-0.051c0.685-1.053,1.904-2.557,4.638-2.557C21.463,7.629,24,9.84,24,14.593L24,14.593z M2.911,0.533
				C1.15,0.533,0,1.688,0,3.207c0,1.484,1.118,2.674,2.844,2.674h0.033c1.795,0,2.91-1.189,2.91-2.674
				C5.754,1.688,4.672,0.533,2.911,0.533L2.911,0.533z M0.307,23.467H5.45V7.992H0.307V23.467z"/>
		</g>
	</g>
</g>
</svg>
