<?xml version="1.0" encoding="utf-8"?>
<!-- Generator: Adobe Illustrator 16.0.3, SVG Export Plug-In . SVG Version: 6.00 Build 0)  -->
<svg version="1.2" baseProfile="tiny" id="Шар_1"
	 xmlns="http://www.w3.org/2000/svg" xmlns:xlink="http://www.w3.org/1999/xlink" x="0px" y="0px" width="24px" height="24px"
	 viewBox="0 0 24 24" xml:space="preserve">
<g>
	<g>
		<g>
			<g>
				<path fill="#FFFFFF" d="M23.797,17.482c-0.029-0.062-0.057-0.112-0.082-0.154c-0.414-0.744-1.203-1.658-2.371-2.742
					l-0.025-0.025l-0.012-0.014l-0.012-0.012h-0.013c-0.53-0.506-0.864-0.846-1.007-1.018c-0.256-0.332-0.314-0.668-0.174-1.007
					c0.1-0.258,0.473-0.799,1.117-1.627c0.34-0.438,0.608-0.791,0.807-1.055c1.434-1.904,2.054-3.121,1.863-3.65l-0.074-0.124
					c-0.049-0.074-0.178-0.143-0.385-0.204c-0.207-0.063-0.472-0.073-0.796-0.031l-3.573,0.025
					c-0.059-0.021-0.143-0.019-0.248,0.007c-0.107,0.025-0.162,0.037-0.162,0.037L18.588,5.92l-0.049,0.037
					c-0.042,0.024-0.088,0.067-0.137,0.131c-0.051,0.062-0.092,0.134-0.123,0.217c-0.391,1.002-0.832,1.932-1.33,2.793
					c-0.307,0.514-0.588,0.958-0.844,1.334c-0.258,0.377-0.474,0.654-0.646,0.832c-0.175,0.178-0.331,0.322-0.473,0.429
					c-0.141,0.108-0.248,0.153-0.321,0.137c-0.075-0.017-0.146-0.034-0.212-0.05c-0.116-0.074-0.209-0.176-0.279-0.305
					c-0.07-0.128-0.117-0.289-0.145-0.484c-0.022-0.193-0.038-0.361-0.043-0.502c-0.004-0.141-0.002-0.34,0.008-0.596
					c0.007-0.258,0.013-0.432,0.013-0.521c0-0.315,0.007-0.656,0.019-1.025c0.013-0.368,0.022-0.66,0.031-0.875
					c0.008-0.215,0.012-0.442,0.012-0.683c0-0.239-0.014-0.429-0.043-0.565c-0.028-0.135-0.072-0.268-0.131-0.396
					s-0.144-0.229-0.254-0.298c-0.111-0.071-0.25-0.126-0.416-0.169c-0.438-0.098-0.997-0.152-1.677-0.16
					C10.01,5.182,9.021,5.282,8.582,5.497C8.408,5.588,8.252,5.713,8.11,5.869C7.961,6.051,7.94,6.15,8.048,6.168
					C8.545,6.242,8.896,6.42,9.104,6.701L9.178,6.85c0.059,0.106,0.117,0.298,0.174,0.571C9.41,7.693,9.448,7.995,9.463,8.327
					c0.042,0.604,0.042,1.121,0,1.551c-0.041,0.431-0.08,0.766-0.117,1.006c-0.037,0.24-0.094,0.435-0.168,0.584
					c-0.074,0.148-0.124,0.24-0.149,0.273c-0.024,0.032-0.046,0.053-0.062,0.062c-0.107,0.042-0.22,0.063-0.336,0.063
					c-0.115,0-0.256-0.058-0.422-0.174c-0.165-0.116-0.337-0.276-0.515-0.479c-0.178-0.201-0.38-0.484-0.603-0.85
					C6.867,10,6.637,9.569,6.396,9.072L6.198,8.713C6.074,8.48,5.904,8.144,5.689,7.7c-0.215-0.442-0.406-0.87-0.57-1.284
					C5.053,6.242,4.953,6.109,4.82,6.018L4.758,5.98C4.717,5.948,4.65,5.913,4.56,5.875c-0.091-0.037-0.186-0.064-0.286-0.08
					L0.872,5.819c-0.348,0-0.583,0.079-0.707,0.235l-0.05,0.074c-0.025,0.044-0.037,0.109-0.037,0.2
					c0,0.092,0.023,0.203,0.074,0.336c0.497,1.166,1.036,2.293,1.62,3.376c0.584,1.085,1.091,1.958,1.521,2.62
					c0.431,0.662,0.869,1.287,1.315,1.874c0.448,0.588,0.743,0.964,0.888,1.13c0.146,0.166,0.26,0.289,0.342,0.373l0.311,0.299
					c0.199,0.197,0.49,0.436,0.876,0.713c0.384,0.277,0.812,0.551,1.278,0.819c0.468,0.269,1.012,0.487,1.633,0.657
					s1.225,0.238,1.813,0.205h1.429c0.288-0.023,0.508-0.115,0.657-0.273l0.049-0.061c0.033-0.051,0.063-0.127,0.093-0.23
					s0.045-0.217,0.045-0.342c-0.008-0.355,0.019-0.676,0.08-0.963c0.063-0.283,0.133-0.5,0.211-0.646
					c0.08-0.146,0.168-0.267,0.268-0.364c0.1-0.101,0.17-0.16,0.211-0.181c0.042-0.021,0.074-0.035,0.1-0.045
					c0.199-0.065,0.432,0,0.701,0.192c0.27,0.195,0.521,0.435,0.758,0.721c0.237,0.286,0.521,0.605,0.851,0.962
					c0.332,0.354,0.62,0.621,0.868,0.795l0.248,0.147c0.166,0.101,0.383,0.191,0.646,0.273c0.266,0.084,0.496,0.104,0.695,0.063
					l3.178-0.049c0.314,0,0.559-0.053,0.732-0.155c0.173-0.103,0.277-0.218,0.311-0.341c0.033-0.125,0.035-0.266,0.006-0.424
					C23.854,17.656,23.824,17.545,23.797,17.482L23.797,17.482z"/>
			</g>
		</g>
	</g>
</g>
</svg>
