<?xml version="1.0" encoding="utf-8"?>
<!-- Generator: Adobe Illustrator 16.0.3, SVG Export Plug-In . SVG Version: 6.00 Build 0)  -->
<svg version="1.2" baseProfile="tiny" id="Шар_1"
	 xmlns="http://www.w3.org/2000/svg" xmlns:xlink="http://www.w3.org/1999/xlink" x="0px" y="0px" width="140px" height="49px"
	 viewBox="0 0 140 49" xml:space="preserve">
<g>
	<g>
		<g>
			<path fill="#FF5A24" d="M28.037,11.907l-0.035,7.985c0,1.911-0.648,3.55-1.948,4.917c-1.113,1.179-2.501,1.973-4.168,2.385v9.501
				h-4.151v-9.501c-1.612-0.457-2.917-1.174-3.917-2.151c-1.434-1.389-2.151-3.211-2.151-5.467v-7.668h4.068l-0.035,7.918
				c0,1,0.324,1.817,0.968,2.45c0.767,0.778,1.896,1.167,3.385,1.167c1.435,0,2.489-0.467,3.166-1.4
				c0.501-0.688,0.751-1.46,0.751-2.317v-7.817H28.037z M49.989,14.39c3.068,2.345,4.602,5.59,4.602,9.735
				c0,3.234-1.173,6.157-3.517,8.769c-2.523,2.801-5.586,4.2-9.186,4.2c-3.547,0-6.574-1.15-9.086-3.449
				c-2.711-2.479-4.066-5.746-4.066-9.802c0-3.435,1.332-6.378,4-8.835c2.535-2.345,5.391-3.517,8.568-3.517
				C44.561,11.49,47.456,12.457,49.989,14.39L49.989,14.39z M46.974,31.426c2.288-1.688,3.433-4.066,3.433-7.133
				c0-2.39-0.755-4.44-2.267-6.151c-1.688-1.856-3.873-2.783-6.551-2.783c-2.323,0-4.341,0.838-6.052,2.517
				c-1.7,1.678-2.55,3.667-2.55,5.968c0,2.533,0.824,4.746,2.476,6.634c1.648,1.89,3.725,2.834,6.226,2.834
				C43.51,33.311,45.271,32.683,46.974,31.426L46.974,31.426z M70.465,15.757h-5.902v20.937h-4.05l-0.017-20.937h-5.95v-3.851
				h15.919V15.757z"/>
		</g>
		<g>
			<path fill="#3A5EDC" d="M85.616,15.757h-5.899v20.937h-4.053l-0.016-20.937h-5.951v-3.851h15.919V15.757z M106.791,14.39
				c3.067,2.345,4.603,5.59,4.603,9.735c0,3.234-1.174,6.157-3.519,8.769c-2.522,2.801-5.584,4.2-9.186,4.2
				c-3.545,0-6.572-1.15-9.084-3.449c-2.711-2.479-4.068-5.746-4.068-9.802c0-3.435,1.334-6.378,4.001-8.835
				c2.533-2.345,5.39-3.517,8.569-3.517C101.363,11.49,104.259,12.457,106.791,14.39L106.791,14.39z M103.773,31.426
				c2.29-1.688,3.436-4.066,3.436-7.133c0-2.39-0.757-4.44-2.268-6.151c-1.689-1.856-3.874-2.783-6.553-2.783
				c-2.32,0-4.339,0.838-6.05,2.517c-1.699,1.678-2.551,3.667-2.551,5.968c0,2.533,0.826,4.746,2.476,6.634
				c1.65,1.89,3.726,2.834,6.227,2.834C100.313,33.311,102.074,32.683,103.773,31.426L103.773,31.426z M113.646,22.075
				c-0.91-1.122-1.367-2.4-1.367-3.834c0-2,0.706-3.589,2.117-4.767c1.256-1.045,2.69-1.567,4.302-1.567h8.652v3.851h-8.652
				c-0.778,0-1.381,0.228-1.808,0.684c-0.43,0.456-0.643,1.011-0.643,1.667c0.067,0.8,0.384,1.395,0.949,1.784
				c0.979,0.678,2.173,1.35,3.584,2.017c1.667,0.789,2.689,1.29,3.068,1.5c1.254,0.723,2.261,1.563,3.016,2.518l0,0
				c0.979,1.256,1.469,2.646,1.469,4.167c0,1.689-0.479,3.112-1.434,4.267c-1.257,1.535-3.168,2.301-5.736,2.301l-9.1,0.034v-3.868
				h8.851c1,0,1.785-0.172,2.351-0.517c0.577-0.333,0.924-0.911,1.034-1.733c0.032-0.088,0.049-0.227,0.049-0.416
				c0-0.7-0.259-1.312-0.773-1.834c-0.518-0.522-1.277-1.022-2.276-1.5c-2.69-1.344-4.122-2.067-4.3-2.168
				C115.498,23.825,114.381,22.964,113.646,22.075"/>
		</g>
	</g>
</g>
</svg>
